<?xml version="1.0" encoding="UTF-8"?>
<svg width="24" height="24" viewBox="0 0 24 24" fill="none" xmlns="http://www.w3.org/2000/svg">
  <path d="M10 4H4C2.89 4 2 4.89 2 6V18C2 19.11 2.89 20 4 20H20C21.11 20 22 19.11 22 18V8C22 6.89 21.11 6 20 6H12L10 4Z" fill="currentColor"/>
  <path d="M14 2H6C4.89 2 4 2.89 4 4V16C4 17.11 4.89 18 6 18H18C19.11 18 20 17.11 20 16V6C20 4.89 19.11 4 18 4H16L14 2Z" fill="none" stroke="currentColor" stroke-width="2"/>
  <path d="M9 9L12 12L15 9" stroke="currentColor" stroke-width="2" stroke-linecap="round" stroke-linejoin="round"/>
</svg>
